[Parsed_ass_82 @ 0x856c38480] libass API version: 0x1704000
[Parsed_ass_82 @ 0x856c38480] libass source: tarball: 0.17.4
[Parsed_ass_82 @ 0x856c38480] Shaper: FriBidi 1.0.16 (SIMPLE) HarfBuzz-ng 12.1.0 (COMPLEX)
[Parsed_ass_82 @ 0x856c38480] Using font provider coretext
[Parsed_ass_82 @ 0x856c38480] Added subtitle file: '/Volumes/AIGC/AI-CUT/projects/0622/结果/文案1/auto-edit/edit/master.ass' (2 styles, 30 events)
Input #0, mov,mp4,m4a,3gp,3g2,mj2, from '/Volumes/AIGC/AI-CUT/projects/0622/素材/视频/影像内容/微信视频2026-06-21_220234_765.mp4':
  Metadata:
    major_brand     : isom
    minor_version   : 512
    compatible_brands: isomiso2avc1mp41
    AIGC            : {"ContentProducer":"00119144030008867405X210001","ContentPropagator":"001191310114074811922G00000","Label":"1","ProduceID":"v0d870g10004d649ulvog65u4m4bg1p0","PropagateID":137791495137085687}
    encoder         : Lavf59.14.100
  Duration: 00:00:15.07, start: 0.000000, bitrate: 4030 kb/s
  Stream #0:0[0x1](und): Video: h264 (High) (avc1 / 0x31637661), yuv420p(tv, bt709, progressive), 1680x720 [SAR 1:1 DAR 7:3], 3976 kb/s, 23.96 fps, 30 tbr, 90k tbn (default)
    Metadata:
      handler_name    : VideoHandler
      vendor_id       : [0][0][0][0]
  Stream #0:1[0x2](und): Audio: aac (HE-AAC) (mp4a / 0x6134706D), 44100 Hz, stereo, fltp, 56 kb/s (default)
    Metadata:
      handler_name    : SoundHandler
      vendor_id       : [0][0][0][0]
Input #1, mov,mp4,m4a,3gp,3g2,mj2, from '/Volumes/AIGC/AI-CUT/projects/0622/素材/视频/工具使用/1.mp4':
  Metadata:
    major_brand     : isom
    minor_version   : 512
    compatible_brands: isomiso2avc1mp41
    encoder         : Lavf59.14.100
  Duration: 00:00:52.01, start: 0.000000, bitrate: 1754 kb/s
  Stream #1:0[0x1](und): Video: h264 (High) (avc1 / 0x31637661), yuv420p(tv, bt709/smpte432/bt709, progressive), 960x720, 1691 kb/s, 30 fps, 30 tbr, 90k tbn (default)
    Metadata:
      handler_name    : VideoHandler
      vendor_id       : [0][0][0][0]
  Stream #1:1[0x2](und): Audio: aac (HE-AAC) (mp4a / 0x6134706D), 44100 Hz, stereo, fltp, 56 kb/s (default)
    Metadata:
      handler_name    : SoundHandler
      vendor_id       : [0][0][0][0]
Input #2, mov,mp4,m4a,3gp,3g2,mj2, from '/Volumes/AIGC/AI-CUT/projects/0622/素材/视频/操作展示/微信视频2026-06-21_220316_527.mp4':
  Metadata:
    major_brand     : isom
    minor_version   : 512
    compatible_brands: isomiso2avc1mp41
    encoder         : Lavf59.14.100
  Duration: 00:00:11.27, start: 0.000000, bitrate: 3014 kb/s
  Stream #2:0[0x1](und): Video: h264 (High) (avc1 / 0x31637661), yuv420p(tv, bt709, progressive), 720x1280, 2949 kb/s, 29.65 fps, 30 tbr, 90k tbn (default)
    Metadata:
      handler_name    : VideoHandler
      vendor_id       : [0][0][0][0]
  Stream #2:1[0x2](und): Audio: aac (HE-AAC) (mp4a / 0x6134706D), 44100 Hz, stereo, fltp, 56 kb/s (default)
    Metadata:
      handler_name    : SoundHandler
      vendor_id       : [0][0][0][0]
Input #3, mov,mp4,m4a,3gp,3g2,mj2, from '/Volumes/AIGC/AI-CUT/projects/0622/素材/视频/工具使用/1.mp4':
  Metadata:
    major_brand     : isom
    minor_version   : 512
    compatible_brands: isomiso2avc1mp41
    encoder         : Lavf59.14.100
  Duration: 00:00:52.01, start: 0.000000, bitrate: 1754 kb/s
  Stream #3:0[0x1](und): Video: h264 (High) (avc1 / 0x31637661), yuv420p(tv, bt709/smpte432/bt709, progressive), 960x720, 1691 kb/s, 30 fps, 30 tbr, 90k tbn (default)
    Metadata:
      handler_name    : VideoHandler
      vendor_id       : [0][0][0][0]
  Stream #3:1[0x2](und): Audio: aac (HE-AAC) (mp4a / 0x6134706D), 44100 Hz, stereo, fltp, 56 kb/s (default)
    Metadata:
      handler_name    : SoundHandler
      vendor_id       : [0][0][0][0]
Input #4, mov,mp4,m4a,3gp,3g2,mj2, from '/Volumes/AIGC/AI-CUT/projects/0622/素材/视频/影像内容/微信视频2026-06-21_220234_765.mp4':
  Metadata:
    major_brand     : isom
    minor_version   : 512
    compatible_brands: isomiso2avc1mp41
    AIGC            : {"ContentProducer":"00119144030008867405X210001","ContentPropagator":"001191310114074811922G00000","Label":"1","ProduceID":"v0d870g10004d649ulvog65u4m4bg1p0","PropagateID":137791495137085687}
    encoder         : Lavf59.14.100
  Duration: 00:00:15.07, start: 0.000000, bitrate: 4030 kb/s
  Stream #4:0[0x1](und): Video: h264 (High) (avc1 / 0x31637661), yuv420p(tv, bt709, progressive), 1680x720 [SAR 1:1 DAR 7:3], 3976 kb/s, 23.96 fps, 30 tbr, 90k tbn (default)
    Metadata:
      handler_name    : VideoHandler
      vendor_id       : [0][0][0][0]
  Stream #4:1[0x2](und): Audio: aac (HE-AAC) (mp4a / 0x6134706D), 44100 Hz, stereo, fltp, 56 kb/s (default)
    Metadata:
      handler_name    : SoundHandler
      vendor_id       : [0][0][0][0]
Input #5, mov,mp4,m4a,3gp,3g2,mj2, from '/Volumes/AIGC/AI-CUT/projects/0622/素材/视频/操作展示/微信视频2026-06-21_220316_527.mp4':
  Metadata:
    major_brand     : isom
    minor_version   : 512
    compatible_brands: isomiso2avc1mp41
    encoder         : Lavf59.14.100
  Duration: 00:00:11.27, start: 0.000000, bitrate: 3014 kb/s
  Stream #5:0[0x1](und): Video: h264 (High) (avc1 / 0x31637661), yuv420p(tv, bt709, progressive), 720x1280, 2949 kb/s, 29.65 fps, 30 tbr, 90k tbn (default)
    Metadata:
      handler_name    : VideoHandler
      vendor_id       : [0][0][0][0]
  Stream #5:1[0x2](und): Audio: aac (HE-AAC) (mp4a / 0x6134706D), 44100 Hz, stereo, fltp, 56 kb/s (default)
    Metadata:
      handler_name    : SoundHandler
      vendor_id       : [0][0][0][0]
Input #6, mov,mp4,m4a,3gp,3g2,mj2, from '/Volumes/AIGC/AI-CUT/projects/0622/素材/视频/工具使用/1.mp4':
  Metadata:
    major_brand     : isom
    minor_version   : 512
    compatible_brands: isomiso2avc1mp41
    encoder         : Lavf59.14.100
  Duration: 00:00:52.01, start: 0.000000, bitrate: 1754 kb/s
  Stream #6:0[0x1](und): Video: h264 (High) (avc1 / 0x31637661), yuv420p(tv, bt709/smpte432/bt709, progressive), 960x720, 1691 kb/s, 30 fps, 30 tbr, 90k tbn (default)
    Metadata:
      handler_name    : VideoHandler
      vendor_id       : [0][0][0][0]
  Stream #6:1[0x2](und): Audio: aac (HE-AAC) (mp4a / 0x6134706D), 44100 Hz, stereo, fltp, 56 kb/s (default)
    Metadata:
      handler_name    : SoundHandler
      vendor_id       : [0][0][0][0]
Input #7, mov,mp4,m4a,3gp,3g2,mj2, from '/Volumes/AIGC/AI-CUT/projects/0622/素材/视频/工具使用/1.mp4':
  Metadata:
    major_brand     : isom
    minor_version   : 512
    compatible_brands: isomiso2avc1mp41
    encoder         : Lavf59.14.100
  Duration: 00:00:52.01, start: 0.000000, bitrate: 1754 kb/s
  Stream #7:0[0x1](und): Video: h264 (High) (avc1 / 0x31637661), yuv420p(tv, bt709/smpte432/bt709, progressive), 960x720, 1691 kb/s, 30 fps, 30 tbr, 90k tbn (default)
    Metadata:
      handler_name    : VideoHandler
      vendor_id       : [0][0][0][0]
  Stream #7:1[0x2](und): Audio: aac (HE-AAC) (mp4a / 0x6134706D), 44100 Hz, stereo, fltp, 56 kb/s (default)
    Metadata:
      handler_name    : SoundHandler
      vendor_id       : [0][0][0][0]
Input #8, mov,mp4,m4a,3gp,3g2,mj2, from '/Volumes/AIGC/AI-CUT/projects/0622/素材/视频/影像内容/微信视频2026-06-21_220234_765.mp4':
  Metadata:
    major_brand     : isom
    minor_version   : 512
    compatible_brands: isomiso2avc1mp41
    AIGC            : {"ContentProducer":"00119144030008867405X210001","ContentPropagator":"001191310114074811922G00000","Label":"1","ProduceID":"v0d870g10004d649ulvog65u4m4bg1p0","PropagateID":137791495137085687}
    encoder         : Lavf59.14.100
  Duration: 00:00:15.07, start: 0.000000, bitrate: 4030 kb/s
  Stream #8:0[0x1](und): Video: h264 (High) (avc1 / 0x31637661), yuv420p(tv, bt709, progressive), 1680x720 [SAR 1:1 DAR 7:3], 3976 kb/s, 23.96 fps, 30 tbr, 90k tbn (default)
    Metadata:
      handler_name    : VideoHandler
      vendor_id       : [0][0][0][0]
  Stream #8:1[0x2](und): Audio: aac (HE-AAC) (mp4a / 0x6134706D), 44100 Hz, stereo, fltp, 56 kb/s (default)
    Metadata:
      handler_name    : SoundHandler
      vendor_id       : [0][0][0][0]
Input #9, mp3, from '/Volumes/AIGC/AI-CUT/projects/0622/素材/音频/文案1-音频.mp3':
  Metadata:
    AIGC            : {"Label":"1","ContentProducer":"MiniMax","ProduceID":"0687f3c6ad28ed88e755dd3ddc09aba5","ReservedCode1":"{\"SecurityData\":{\"Type\":\"TC260PG\",\"Version\":1,\"PubSD\":[{\"Type\":\"DS\",\"AlgID\":\"1.2.156.10197.1.501\",\"TBSData\":{\"Type\":\"LabelMataD
    encoder         : Lavf59.27.100
  Duration: 00:00:43.74, start: 0.016531, bitrate: 128 kb/s
  Stream #9:0: Audio: mp3 (mp3float), 32000 Hz, mono, fltp, 128 kb/s, start 0.016531
Stream mapping:
  Stream #0:0 (h264) -> scale:default
  Stream #0:0 (h264) -> scale:default
  Stream #1:0 (h264) -> scale:default
  Stream #1:0 (h264) -> scale:default
  Stream #2:0 (h264) -> scale:default
  Stream #2:0 (h264) -> scale:default
  Stream #3:0 (h264) -> scale:default
  Stream #3:0 (h264) -> scale:default
  Stream #4:0 (h264) -> scale:default
  Stream #4:0 (h264) -> scale:default
  Stream #5:0 (h264) -> scale:default
  Stream #5:0 (h264) -> scale:default
  Stream #6:0 (h264) -> scale:default
  Stream #6:0 (h264) -> scale:default
  Stream #7:0 (h264) -> scale:default
  Stream #7:0 (h264) -> scale:default
  Stream #8:0 (h264) -> scale:default
  Stream #8:0 (h264) -> scale:default
  ass:default -> Stream #0:0 (libx264)
  Stream #9:0 -> #0:1 (mp3 (mp3float) -> aac (native))
Press [q] to stop, [?] for help
[Parsed_ass_82 @ 0x849b37f00] libass API version: 0x1704000
[Parsed_ass_82 @ 0x849b37f00] libass source: tarball: 0.17.4
[Parsed_ass_82 @ 0x849b37f00] Shaper: FriBidi 1.0.16 (SIMPLE) HarfBuzz-ng 12.1.0 (COMPLEX)
[Parsed_ass_82 @ 0x849b37f00] Using font provider coretext
[Parsed_ass_82 @ 0x849b37f00] Added subtitle file: '/Volumes/AIGC/AI-CUT/projects/0622/结果/文案1/auto-edit/edit/master.ass' (2 styles, 30 events)
[libx264 @ 0x856d7d180] using SAR=1/1
[libx264 @ 0x856d7d180] using cpu capabilities: ARMv8 NEON DotProd I8MM
[libx264 @ 0x856d7d180] profile High, level 3.1, 4:2:0, 8-bit
[libx264 @ 0x856d7d180] 264 - core 165 r3222 b35605a - H.264/MPEG-4 AVC codec - Copyleft 2003-2025 - http://www.videolan.org/x264.html - options: cabac=1 ref=1 deblock=1:0:0 analyse=0x3:0x113 me=hex subme=2 psy=1 psy_rd=1.00:0.00 mixed_ref=0 me_range=16 chroma_me=1 trellis=0 8x8dct=1 cqm=0 deadzone=21,11 fast_pskip=1 chroma_qp_offset=0 threads=15 lookahead_threads=5 sliced_threads=0 nr=0 decimate=1 interlaced=0 bluray_compat=0 constrained_intra=0 bframes=3 b_pyramid=2 b_adapt=1 b_bias=0 direct=1 weightb=1 open_gop=0 weightp=1 keyint=250 keyint_min=25 scenecut=40 intra_refresh=0 rc_lookahead=10 rc=crf mbtree=1 crf=18.0 qcomp=0.60 qpmin=0 qpmax=69 qpstep=4 ip_ratio=1.40 aq=1:1.00
Output #0, mp4, to '/Volumes/AIGC/AI-CUT/projects/0622/结果/文案1/文案1_final.mp4':
  Metadata:
    major_brand     : isom
    minor_version   : 512
    compatible_brands: isomiso2avc1mp41
    AIGC            : {"ContentProducer":"00119144030008867405X210001","ContentPropagator":"001191310114074811922G00000","Label":"1","ProduceID":"v0d870g10004d649ulvog65u4m4bg1p0","PropagateID":137791495137085687}
    encoder         : Lavf62.3.100
  Stream #0:0: Video: h264 (avc1 / 0x31637661), yuv420p(tv, bt709, progressive), 1280x720 [SAR 1:1 DAR 16:9], q=2-31, 30 fps, 15360 tbn
    Metadata:
      encoder         : Lavc62.11.100 libx264
    Side data:
      cpb: bitrate max/min/avg: 0/0/0 buffer size: 0 vbv_delay: N/A
  Stream #0:1: Audio: aac (LC) (mp4a / 0x6134706D), 32000 Hz, mono, fltp, 160 kb/s
    Metadata:
      encoder         : Lavc62.11.100 aac
[Parsed_ass_82 @ 0x849b37f00] fontselect: (Heiti SC, 400, 0) -> /System/Library/Fonts/STHeiti Medium.ttc, -1, STHeitiSC-Medium
frame=    0 fps=0.0 q=0.0 size=       0KiB time=N/A bitrate=N/A speed=N/A elapsed=0:00:01.00    
frame=   16 fps= 11 q=24.0 size=     256KiB time=00:00:00.46 bitrate=4494.7kbits/s speed=0.31x elapsed=0:00:01.50    
frame=   51 fps= 25 q=24.0 size=     768KiB time=00:00:01.63 bitrate=3852.1kbits/s speed=0.812x elapsed=0:00:02.01    
frame=   76 fps= 30 q=24.0 size=    1024KiB time=00:00:02.53 bitrate=3311.4kbits/s speed=1.01x elapsed=0:00:02.51    
frame=  100 fps= 33 q=24.0 size=    1536KiB time=00:00:03.26 bitrate=3852.0kbits/s speed=1.08x elapsed=0:00:03.02    
frame=  125 fps= 35 q=21.0 size=    2048KiB time=00:00:04.10 bitrate=4092.1kbits/s speed=1.16x elapsed=0:00:03.52    
frame=  143 fps= 35 q=24.0 size=    2560KiB time=00:00:04.70 bitrate=4462.1kbits/s speed=1.17x elapsed=0:00:04.03    
frame=  165 fps= 36 q=24.0 size=    3328KiB time=00:00:05.43 bitrate=5017.8kbits/s speed= 1.2x elapsed=0:00:04.53    
frame=  174 fps= 34 q=24.0 size=    3328KiB time=00:00:05.73 bitrate=4755.2kbits/s speed=1.14x elapsed=0:00:05.04    
frame=  185 fps= 33 q=24.0 size=    3584KiB time=00:00:06.10 bitrate=4813.2kbits/s speed= 1.1x elapsed=0:00:05.55    
frame=  205 fps= 34 q=24.0 size=    3840KiB time=00:00:06.76 bitrate=4648.9kbits/s speed=1.12x elapsed=0:00:06.06    
frame=  217 fps= 33 q=24.0 size=    4096KiB time=00:00:07.16 bitrate=4682.1kbits/s speed=1.09x elapsed=0:00:06.56    
frame=  234 fps= 33 q=24.0 size=    4352KiB time=00:00:07.73 bitrate=4610.2kbits/s speed=1.09x elapsed=0:00:07.07    
frame=  253 fps= 33 q=24.0 size=    4352KiB time=00:00:08.36 bitrate=4261.2kbits/s speed= 1.1x elapsed=0:00:07.57    
frame=  281 fps= 35 q=24.0 size=    4864KiB time=00:00:09.30 bitrate=4284.5kbits/s speed=1.15x elapsed=0:00:08.08    
frame=  292 fps= 34 q=24.0 size=    5120KiB time=00:00:09.66 bitrate=4339.0kbits/s speed=1.13x elapsed=0:00:08.58    
frame=  292 fps= 32 q=24.0 size=    5120KiB time=00:00:09.66 bitrate=4339.0kbits/s speed=1.06x elapsed=0:00:09.09    
frame=  292 fps= 30 q=24.0 size=    5120KiB time=00:00:09.66 bitrate=4339.0kbits/s speed=1.01x elapsed=0:00:09.59    
frame=  292 fps= 29 q=24.0 size=    5120KiB time=00:00:09.66 bitrate=4339.0kbits/s speed=0.957x elapsed=0:00:10.10    
frame=  292 fps= 28 q=24.0 size=    5120KiB time=00:00:09.66 bitrate=4339.0kbits/s speed=0.911x elapsed=0:00:10.60    
frame=  292 fps= 26 q=24.0 size=    5120KiB time=00:00:09.66 bitrate=4339.0kbits/s speed=0.87x elapsed=0:00:11.10    
frame=  292 fps= 25 q=24.0 size=    5120KiB time=00:00:09.66 bitrate=4339.0kbits/s speed=0.832x elapsed=0:00:11.61    
frame=  292 fps= 24 q=24.0 size=    5120KiB time=00:00:09.66 bitrate=4339.0kbits/s speed=0.797x elapsed=0:00:12.12    
frame=  292 fps= 23 q=24.0 size=    5120KiB time=00:00:09.66 bitrate=4339.0kbits/s speed=0.766x elapsed=0:00:12.62    
frame=  292 fps= 22 q=24.0 size=    5120KiB time=00:00:09.66 bitrate=4339.0kbits/s speed=0.736x elapsed=0:00:13.13    
frame=  308 fps= 23 q=24.0 size=    5376KiB time=00:00:10.20 bitrate=4317.7kbits/s speed=0.748x elapsed=0:00:13.63    
frame=  331 fps= 23 q=24.0 size=    5632KiB time=00:00:10.96 bitrate=4207.1kbits/s speed=0.775x elapsed=0:00:14.14    
frame=  361 fps= 25 q=24.0 size=    6144KiB time=00:00:11.96 bitrate=4206.0kbits/s speed=0.817x elapsed=0:00:14.65    
frame=  379 fps= 25 q=24.0 size=    6400KiB time=00:00:12.56 bitrate=4172.1kbits/s speed=0.829x elapsed=0:00:15.16    
frame=  403 fps= 26 q=24.0 size=    6912KiB time=00:00:13.36 bitrate=4236.2kbits/s speed=0.853x elapsed=0:00:15.66    
frame=  427 fps= 26 q=24.0 size=    7168KiB time=00:00:14.16 bitrate=4145.0kbits/s speed=0.876x elapsed=0:00:16.17    
frame=  461 fps= 28 q=24.0 size=    7936KiB time=00:00:15.30 bitrate=4249.2kbits/s speed=0.917x elapsed=0:00:16.67    
frame=  482 fps= 28 q=24.0 size=    8192KiB time=00:00:16.00 bitrate=4194.3kbits/s speed=0.931x elapsed=0:00:17.18    
frame=  503 fps= 28 q=24.0 size=    8448KiB time=00:00:16.70 bitrate=4144.1kbits/s speed=0.944x elapsed=0:00:17.68    
frame=  523 fps= 29 q=24.0 size=    8960KiB time=00:00:17.36 bitrate=4226.5kbits/s speed=0.955x elapsed=0:00:18.18    
frame=  553 fps= 30 q=24.0 size=    9216KiB time=00:00:18.36 bitrate=4110.6kbits/s speed=0.982x elapsed=0:00:18.69    
frame=  587 fps= 31 q=24.0 size=    9728KiB time=00:00:19.50 bitrate=4086.8kbits/s speed=1.02x elapsed=0:00:19.19    
frame=  599 fps= 30 q=24.0 size=    9728KiB time=00:00:19.93 bitrate=3997.9kbits/s speed=1.01x elapsed=0:00:19.70    
frame=  625 fps= 31 q=24.0 size=   10240KiB time=00:00:20.76 bitrate=4039.5kbits/s speed=1.03x elapsed=0:00:20.20    
frame=  637 fps= 31 q=24.0 size=   10496KiB time=00:00:21.16 bitrate=4062.2kbits/s speed=1.02x elapsed=0:00:20.71    
frame=  650 fps= 31 q=24.0 size=   10752KiB time=00:00:21.60 bitrate=4077.8kbits/s speed=1.02x elapsed=0:00:21.21    
frame=  674 fps= 31 q=24.0 size=   11008KiB time=00:00:22.40 bitrate=4025.8kbits/s speed=1.03x elapsed=0:00:21.71    
frame=  688 fps= 31 q=24.0 size=   11264KiB time=00:00:22.86 bitrate=4035.4kbits/s speed=1.03x elapsed=0:00:22.22    
frame=  703 fps= 31 q=24.0 size=   11264KiB time=00:00:23.36 bitrate=3949.0kbits/s speed=1.03x elapsed=0:00:22.72    
frame=  725 fps= 31 q=24.0 size=   11520KiB time=00:00:24.13 bitrate=3910.5kbits/s speed=1.04x elapsed=0:00:23.23    
frame=  745 fps= 31 q=24.0 size=   11776KiB time=00:00:24.76 bitrate=3895.1kbits/s speed=1.04x elapsed=0:00:23.73    
frame=  763 fps= 31 q=24.0 size=   12032KiB time=00:00:25.36 bitrate=3885.7kbits/s speed=1.05x elapsed=0:00:24.23    
frame=  785 fps= 32 q=24.0 size=   12544KiB time=00:00:26.10 bitrate=3937.2kbits/s speed=1.05x elapsed=0:00:24.73    
frame=  805 fps= 32 q=24.0 size=   13056KiB time=00:00:26.76 bitrate=3995.8kbits/s speed=1.06x elapsed=0:00:25.24    
frame=  821 fps= 32 q=24.0 size=   13312KiB time=00:00:27.30 bitrate=3994.6kbits/s speed=1.06x elapsed=0:00:25.75    
frame=  836 fps= 32 q=24.0 size=   13568KiB time=00:00:27.80 bitrate=3998.2kbits/s speed=1.06x elapsed=0:00:26.25    
frame=  865 fps= 32 q=24.0 size=   14080KiB time=00:00:28.76 bitrate=4009.6kbits/s speed=1.08x elapsed=0:00:26.75    
frame=  894 fps= 33 q=24.0 size=   14592KiB time=00:00:29.73 bitrate=4020.3kbits/s speed=1.09x elapsed=0:00:27.26    
frame=  946 fps= 34 q=24.0 size=   15616KiB time=00:00:31.46 bitrate=4065.5kbits/s speed=1.13x elapsed=0:00:27.77    
frame= 1042 fps= 37 q=24.0 size=   16896KiB time=00:00:35.93 bitrate=3851.6kbits/s speed=1.27x elapsed=0:00:28.27    
frame= 1177 fps= 41 q=24.0 size=   18688KiB time=00:00:40.44 bitrate=3784.9kbits/s speed=1.41x elapsed=0:00:28.77    
frame= 1277 fps= 44 q=24.0 size=   19968KiB time=N/A bitrate=N/A speed=N/A elapsed=0:00:29.27    
[mp4 @ 0x85704e800] Starting second pass: moving the moov atom to the beginning of the file
[out#0/mp4 @ 0x856c3a280] video:20106KiB audio:715KiB subtitle:0KiB other streams:0KiB global headers:0KiB muxing overhead: 0.159325%
frame= 1311 fps= 45 q=-1.0 Lsize=   20854KiB time=00:00:43.63 bitrate=3915.3kbits/s speed=1.49x elapsed=0:00:29.37    
[libx264 @ 0x856d7d180] frame I:17    Avg QP:16.63  size: 60117
[libx264 @ 0x856d7d180] frame P:427   Avg QP:19.13  size: 29961
[libx264 @ 0x856d7d180] frame B:867   Avg QP:21.09  size:  7811
[libx264 @ 0x856d7d180] consecutive B-frames:  7.0% 12.1%  7.1% 73.8%
[libx264 @ 0x856d7d180] mb I  I16..4: 16.5% 39.3% 44.2%
[libx264 @ 0x856d7d180] mb P  I16..4: 13.7% 28.3%  7.9%  P16..4: 20.8% 12.8%  6.9%  0.0%  0.0%    skip: 9.6%
[libx264 @ 0x856d7d180] mb B  I16..4:  2.4%  3.3%  0.8%  B16..8: 20.5%  8.6%  1.4%  direct: 6.1%  skip:56.9%  L0:38.9% L1:45.3% BI:15.8%
[libx264 @ 0x856d7d180] 8x8 transform intra:54.4% inter:24.7%
[libx264 @ 0x856d7d180] coded y,uvDC,uvAC intra: 52.5% 35.9% 6.7% inter: 11.1% 9.3% 0.6%
[libx264 @ 0x856d7d180] i16 v,h,dc,p: 34% 36% 13% 16%
[libx264 @ 0x856d7d180] i8 v,h,dc,ddl,ddr,vr,hd,vl,hu: 20% 37% 17%  2%  5%  4%  7%  4%  5%
[libx264 @ 0x856d7d180] i4 v,h,dc,ddl,ddr,vr,hd,vl,hu: 22% 36% 14%  2%  7%  4%  7%  3%  5%
[libx264 @ 0x856d7d180] i8c dc,h,v,p: 52% 28% 16%  4%
[libx264 @ 0x856d7d180] Weighted P-Frames: Y:5.9% UV:2.1%
[libx264 @ 0x856d7d180] kb/s:3768.86
[aac @ 0x856d7d880] Qavg: 64570.246
